<svg width="53" height="53" viewBox="0 0 53 53" fill="none" xmlns="http://www.w3.org/2000/svg">
<path d="M35.7529 4.41663H17.2471C9.20875 4.41663 4.41666 9.20871 4.41666 17.247V35.7308C4.41666 43.7912 9.20875 48.5833 17.2471 48.5833H35.7308C43.7692 48.5833 48.5612 43.7912 48.5612 35.7529V17.247C48.5833 9.20871 43.7912 4.41663 35.7529 4.41663ZM30.74 35.6204H19.875C18.9696 35.6204 18.2187 34.8695 18.2187 33.9641C18.2187 33.0587 18.9696 32.3079 19.875 32.3079H30.74C33.5667 32.3079 35.8854 30.0112 35.8854 27.1625C35.8854 24.3137 33.5887 22.017 30.74 22.017H19.5437L20.1179 22.5912C20.7583 23.2537 20.7583 24.2916 20.0958 24.9541C19.7646 25.2854 19.345 25.44 18.9254 25.44C18.5058 25.44 18.0862 25.2854 17.755 24.9541L14.2879 21.465C13.6475 20.8245 13.6475 19.7645 14.2879 19.1241L17.755 15.657C18.3954 15.0166 19.4554 15.0166 20.0958 15.657C20.7362 16.2975 20.7362 17.3575 20.0958 17.9979L19.3671 18.7266H30.74C35.3996 18.7266 39.1979 22.525 39.1979 27.1845C39.1979 31.8441 35.3996 35.6204 30.74 35.6204Z" fill="#554FFF"/>
</svg>
